# xmcd
#
# Track frame offsets:
#	150
#	25825
#	53182
#	112890
#	144925
#
# Disc length: 2526 seconds
#
# Revision: 1
# Processed by: cddbd v1.5.2PL0 Copyright (c) Steve Scherf et al.
# Submitted via: EasyCDDAExtractor 2011.0.0.0
#
DISCID=3709dc05
DTITLE=국악기와 서양악기로 연주하는 전통음악 - ±¹¾Ç±â¿Í ¼­¾ç¾Ç±â·Î ¿¬ÁÖÇÏ'Â ÀüÅëÀ½¾Ç
DYEAR=1900
DGENRE=Country
TTITLE0=김만석 편곡 - 낙양춘
TTITLE1=김성국 편곡 - 헌천수
TTITLE2=강상구 편곡 - 천년만세
TTITLE3=계성원 편곡 - 경풍년
TTITLE4=지원석 편곡 - 만파정식지곡
EXTD=
EXTT0=
EXTT1=
EXTT2=
EXTT3=
EXTT4=
PLAYORDER=
